<svg width="43" height="42" viewBox="0 0 43 42" fill="none" xmlns="http://www.w3.org/2000/svg">
<path fill-rule="evenodd" clip-rule="evenodd" d="M21.2169 3.37409C19.1742 3.37409 17.4023 4.53328 16.523 6.22976C18.5795 6.87515 20.2723 8.34218 21.2169 10.2462C22.1613 8.34213 23.8541 6.87506 25.9107 6.22971C25.0314 4.53328 23.2595 3.37409 21.2169 3.37409ZM21.2169 0.790039C17.851 0.790039 14.9788 2.9037 13.8551 5.8761C9.75597 6.03458 6.46129 9.32926 6.30286 13.4284C3.33045 14.5521 1.2168 17.4243 1.2168 20.7901C1.2168 24.156 3.33045 27.0282 6.30286 28.152C6.46144 32.2511 9.75606 35.5455 13.8551 35.704C14.9788 38.6765 17.851 40.79 21.2169 40.79C24.5828 40.79 27.455 38.6763 28.5787 35.704C32.6794 35.5453 35.975 32.248 36.1309 28.1464L36.1307 28.152C39.103 27.0282 41.2168 24.1561 41.2168 20.7901C41.2168 17.4242 39.1032 14.552 36.1307 13.4284C35.9723 9.3293 32.6778 6.03468 28.5787 5.8761C27.455 2.9037 24.5829 0.790039 21.2169 0.790039ZM6.65642 25.484C7.30177 23.4273 8.76884 21.7345 10.6729 20.7902C8.76889 19.8456 7.30186 18.1528 6.65647 16.0963C4.95999 16.9755 3.8008 18.7475 3.8008 20.7902C3.8008 22.8329 4.95999 24.6047 6.65642 25.484ZM21.2169 38.206C19.1742 38.206 17.4023 37.0468 16.523 35.3504C18.5795 34.7049 20.2723 33.2381 21.2167 31.334C22.1613 33.2381 23.8541 34.7051 25.9107 35.3504C25.0315 37.0468 23.2595 38.206 21.2169 38.206ZM35.7771 16.0963C35.1316 18.1528 33.6646 19.8456 31.7607 20.7902C33.6648 21.7346 35.1318 23.4276 35.7771 25.4842C37.4736 24.6047 38.6327 22.8329 38.6327 20.7902C38.6327 18.7475 37.4736 16.9756 35.7771 16.0963ZM8.88089 13.7377C8.88089 10.8197 11.2464 8.45418 14.1644 8.45418C16.877 8.45418 19.1122 10.4983 19.4134 13.1303C16.5166 13.8096 14.2363 16.0899 13.5569 18.9868C10.925 18.6855 8.88084 16.4503 8.88084 13.7378L8.88089 13.7377ZM13.5569 22.5935C10.925 22.8947 8.88089 25.1297 8.88089 27.8424C8.88089 30.7604 11.2464 33.1259 14.1644 33.1259C16.877 33.1259 19.112 31.0819 19.4134 28.4501C16.5165 27.7707 14.2363 25.4903 13.5569 22.5934V22.5935ZM23.0202 28.4501C23.3215 31.0819 25.5567 33.126 28.2691 33.126C31.1871 33.126 33.5527 30.7604 33.5527 27.8424C33.5527 25.13 31.5086 22.8948 28.8768 22.5935C28.1974 25.4904 25.917 27.7708 23.0202 28.4502L23.0202 28.4501ZM28.8768 18.9867C31.5086 18.6854 33.5527 16.4503 33.5527 13.7377C33.5527 10.8197 31.1871 8.45418 28.2692 8.45418C25.5565 8.45418 23.3215 10.4983 23.0203 13.1302C25.9171 13.8095 28.1974 16.0898 28.8768 18.9867ZM15.9333 20.7902C15.9333 17.8722 18.2989 15.5066 21.2169 15.5066C24.1349 15.5066 26.5004 17.8722 26.5004 20.7902C26.5004 23.7082 24.1348 26.0737 21.2169 26.0737C18.299 26.0737 15.9333 23.7081 15.9333 20.7902Z" fill="#E09400"/>
<path fill-rule="evenodd" clip-rule="evenodd" d="M13.7191 5.68722C14.9017 2.70467 17.8127 0.595032 21.2168 0.595032C24.6211 0.595032 27.532 2.70467 28.7146 5.68722C32.8129 5.91046 36.0964 9.19409 36.3195 13.2924C39.3022 14.475 41.4117 17.3859 41.4117 20.7901C41.4117 24.1943 39.302 27.1052 36.3195 28.2879C36.0962 32.3862 32.8127 35.6696 28.7146 35.8928C27.532 38.8753 24.621 40.985 21.2168 40.985C17.8127 40.985 14.9017 38.8755 13.7191 35.8928C9.62079 35.6697 6.33716 32.3863 6.11392 28.2879C3.13137 27.1053 1.02173 24.1943 1.02173 20.7901C1.02173 17.386 3.13136 14.475 6.11391 13.2924C6.33702 9.19404 9.62069 5.91037 13.7191 5.68722ZM36.1284 28.1459L35.936 28.139C35.784 32.1388 32.57 35.3544 28.5711 35.5091L28.442 35.5141L28.3963 35.635C27.3003 38.534 24.499 40.595 21.2168 40.595C17.9347 40.595 15.1334 38.5342 14.0375 35.635L13.9918 35.5141L13.8626 35.5091C9.8653 35.3546 6.65228 32.1417 6.49764 28.1444L6.49265 28.0153L6.37175 27.9696C3.4727 26.8736 1.41173 24.0723 1.41173 20.7901C1.41173 17.508 3.4727 14.7067 6.37174 13.6108L6.49265 13.5651L6.49764 13.4359C6.65215 9.43856 9.86521 6.2255 13.8626 6.07095L13.9918 6.06595L14.0375 5.94504C15.1334 3.046 17.9347 0.985032 21.2168 0.985032C24.4991 0.985032 27.3003 3.046 28.3963 5.94505L28.442 6.06595L28.5711 6.07095C32.5684 6.22559 35.7813 9.43861 35.9358 13.4359L35.9408 13.5651L36.0617 13.6108C38.9608 14.7067 41.0217 17.5079 41.0217 20.7901C41.0217 24.0723 38.9607 26.8735 36.0617 27.9696L36.1284 28.1459ZM16.3498 6.14002C17.2613 4.38142 19.0985 3.17908 21.2168 3.17908C23.3351 3.17908 25.1723 4.38142 26.0837 6.13997L26.1906 6.34621L25.969 6.41576C23.9637 7.04501 22.3126 8.4758 21.3915 10.3328L21.2168 10.685L21.0421 10.3328C20.1209 8.47585 18.4697 7.0451 16.4645 6.4158L16.2429 6.34625L16.3498 6.14002ZM16.8063 6.11799C18.6926 6.77193 20.2605 8.10619 21.2168 9.8271C22.173 8.10614 23.7409 6.77184 25.6272 6.11794C24.7478 4.59408 23.1019 3.56908 21.2168 3.56908C19.3317 3.56908 17.6858 4.59409 16.8063 6.11799ZM14.1644 8.64917C11.3541 8.64917 9.07582 10.9274 9.07582 13.7377V13.76C9.08672 16.3037 10.9642 18.4071 13.4092 18.7707C14.1392 15.9405 16.3671 13.7126 19.1973 12.9826C18.8327 10.5305 16.7181 8.64917 14.1644 8.64917ZM8.68642 13.6564C8.72992 10.6682 11.1658 8.25917 14.1644 8.25917C16.9772 8.25917 19.2947 10.3788 19.6071 13.1081L19.6268 13.2805L19.4579 13.3201C16.6331 13.9826 14.4092 16.2065 13.7467 19.0313L13.7071 19.2002L13.5347 19.1805C10.8054 18.8681 8.68578 16.5506 8.68578 13.7378V13.657L8.68642 13.6564ZM22.8264 13.108C23.1388 10.3788 25.4562 8.25917 28.2691 8.25917C31.2947 8.25917 33.7476 10.712 33.7476 13.7377C33.7476 16.5505 31.6281 18.868 28.8989 19.1805L28.7265 19.2002L28.6869 19.0312C28.0244 16.2065 25.8004 13.9825 22.9757 13.32L22.8067 13.2804L22.8264 13.108ZM23.2363 12.9826C26.0665 13.7125 28.2944 15.9404 29.0244 18.7706C31.4764 18.4059 33.3576 16.2914 33.3576 13.7377C33.3576 10.9274 31.0793 8.64917 28.2691 8.64917C25.7153 8.64917 23.6009 10.5304 23.2363 12.9826ZM21.2168 15.7016C18.4065 15.7016 16.1283 17.9799 16.1283 20.7902C16.1283 23.6004 18.4066 25.8787 21.2168 25.8787C24.027 25.8787 26.3054 23.6005 26.3054 20.7902C26.3054 17.9799 24.0271 15.7016 21.2168 15.7016ZM15.7383 20.7902C15.7383 17.7645 18.1911 15.3116 21.2168 15.3116C24.2425 15.3116 26.6954 17.7645 26.6954 20.7902C26.6954 23.8159 24.2424 26.2687 21.2168 26.2687C18.1912 26.2687 15.7383 23.8158 15.7383 20.7902ZM35.6606 15.8162L35.8668 15.9231C37.6253 16.8346 38.8277 18.6718 38.8277 20.7902C38.8277 22.9085 37.6253 24.7456 35.8668 25.6573L35.6606 25.7642L35.591 25.5426C34.9618 23.5372 33.531 21.8859 31.674 20.9649L31.3218 20.7902L31.674 20.6155C33.5308 19.6942 34.9616 18.0431 35.591 16.0379L35.6606 15.8162ZM6.7729 15.8162L6.84245 16.0379C7.47175 18.0431 8.9025 19.6942 10.7595 20.6155L11.1117 20.7902L10.7595 20.9649C8.90245 21.8859 7.47166 23.537 6.84241 25.5423L6.77286 25.764L6.56662 25.6571C4.80807 24.7456 3.60573 22.9085 3.60573 20.7902C3.60573 18.6718 4.80807 16.8346 6.56667 15.9231L6.7729 15.8162ZM6.54464 16.3797C5.02074 17.2591 3.99573 18.9051 3.99573 20.7902C3.99573 22.6753 5.02073 24.3211 6.54459 25.2005C7.19848 23.3142 8.53278 21.7463 10.2537 20.7902C8.53284 19.8338 7.19857 18.2659 6.54464 16.3797ZM35.8888 16.3797C35.2348 18.2659 33.9005 19.8338 32.1797 20.7901C33.9007 21.7464 35.235 23.3144 35.8888 25.2007C37.4127 24.3211 38.4377 22.6753 38.4377 20.7902C38.4377 18.9051 37.4127 17.2591 35.8888 16.3797ZM28.7265 22.3801L28.8989 22.3998C31.628 22.7122 33.7476 25.0297 33.7476 27.8424C33.7476 30.868 31.2947 33.321 28.269 33.321C25.5313 33.321 23.2626 31.3128 22.8556 28.689L22.4346 28.7878L22.8781 28.3165L22.8781 28.3165L23.1661 28.0105L23.1886 28.2071C25.9117 27.485 28.0412 25.3024 28.6869 22.549L28.7265 22.3801ZM23.2362 28.5978C23.6009 31.0498 25.7155 32.931 28.269 32.931C31.0793 32.931 33.3576 30.6527 33.3576 27.8424C33.3576 25.2888 31.4764 23.1743 29.0243 22.8096C28.2944 25.6398 26.0664 27.8677 23.2362 28.5978ZM8.68582 27.8424C8.68582 25.0295 10.8054 22.7121 13.5347 22.3998L13.5543 22.5712L13.7467 22.5489C14.4091 25.3737 16.6331 27.5978 19.4579 28.2602L19.6268 28.2998L19.6071 28.4722C19.2946 31.2014 16.9771 33.3209 14.1644 33.3209C11.1387 33.3209 8.68582 30.868 8.68582 27.8424ZM13.4092 22.8096C10.9571 23.1742 9.07582 25.2886 9.07582 27.8424C9.07582 30.6527 11.3541 32.9309 14.1644 32.9309C16.718 32.9309 18.8325 31.0497 19.1973 28.5977C16.367 27.8677 14.1392 25.6398 13.4092 22.8096ZM21.2166 30.8952L21.3913 31.2473C22.3126 33.1044 23.9637 34.5351 25.969 35.1644L26.1907 35.2339L26.0838 35.4401C25.1723 37.1987 23.3351 38.401 21.2168 38.401C19.0985 38.401 17.2613 37.1987 16.3498 35.4401L16.2429 35.2339L16.4645 35.1644C18.4698 34.535 20.1209 33.1044 21.0419 31.2473L21.2166 30.8952ZM21.2166 31.7531C20.2604 33.4741 18.6926 34.8082 16.8063 35.4622C17.6858 36.986 19.3317 38.011 21.2168 38.011C23.1019 38.011 24.7478 36.986 25.6272 35.4622C23.7409 34.8083 22.173 33.4741 21.2166 31.7531Z" fill="#E09400"/>
</svg>
