<svg width="166" height="53" viewBox="0 0 166 53" fill="none" xmlns="http://www.w3.org/2000/svg">
<g clip-path="url(#clip0_1099_2158)">
<path d="M166 19.8707V13.2415H157.957V0.0169983H148.807V13.2415H135.329V11.0997C135.329 8.70301 136.3 7.66613 139.163 7.66613H143.388V0.0169983H137.68C130.796 0.0169983 126.195 2.92367 126.195 11.1507V13.2415H119.55V19.8707H126.195V52.983H135.346V19.8707H148.824V41.8493C148.824 50.0763 153.442 52.983 160.309 52.983H166.017V45.3339H161.791C158.929 45.3339 157.957 44.297 157.957 41.9003V19.8538H166V19.8707Z" fill="#5AFBC4"/>
<path d="M40.6565 17.1171L26.9056 29.9676L0 0V26.5L26.9056 53L40.6565 40.1495L54.629 53L73.0318 36.2739V13.2415L54.5098 29.9506L40.6565 17.1171Z" fill="#5AFBC4"/>
<path d="M97.7734 13.2585C85.573 13.2585 77.0873 20.9756 77.0873 33.1292C77.0873 45.2829 85.7945 53 97.7734 53C107.963 53 114.813 47.3736 117.045 40.2854H105.799C104.453 42.8521 101.999 44.9429 97.5348 44.9429C92.3207 44.9429 88.163 41.7473 87.6348 36.0529H117.778C117.999 34.795 118.068 33.5542 118.068 32.2963C118.068 20.8396 109.65 13.2585 97.7563 13.2585H97.7734ZM87.737 29.5086C88.5549 24.2222 92.5081 21.2476 97.4837 21.2476C102.834 21.2476 107.162 24.4432 107.316 29.5086H87.737Z" fill="#5AFBC4"/>
</g>
<defs>
<clipPath id="clip0_1099_2158">
<rect width="166" height="53" fill="white"/>
</clipPath>
</defs>
</svg>
