<!-- SVG placeholder for DeFi dashboard -->
<svg width="800" height="600" viewBox="0 0 800 600" xmlns="http://www.w3.org/2000/svg">
  <defs>
    <linearGradient id="bg" x1="0%" y1="0%" x2="100%" y2="100%">
      <stop offset="0%" style="stop-color:#00ff7f;stop-opacity:0.1" />
      <stop offset="100%" style="stop-color:#0066ff;stop-opacity:0.1" />
    </linearGradient>
    <linearGradient id="card" x1="0%" y1="0%" x2="100%" y2="100%">
      <stop offset="0%" style="stop-color:#1a1a1a;stop-opacity:0.9" />
      <stop offset="100%" style="stop-color:#2a2a2a;stop-opacity:0.9" />
    </linearGradient>
  </defs>
  
  <!-- Background -->
  <rect width="800" height="600" fill="url(#bg)" />
  
  <!-- Main Dashboard -->
  <rect x="50" y="50" width="700" height="500" rx="20" fill="url(#card)" stroke="#00ff7f" stroke-width="2" />
  
  <!-- Header -->
  <rect x="80" y="80" width="640" height="60" rx="10" fill="#00ff7f" fill-opacity="0.2" />
  <text x="100" y="115" font-family="Arial, sans-serif" font-size="20" font-weight="bold" fill="#00ff7f">Weft Finance Dashboard</text>
  
  <!-- Stats Cards -->
  <rect x="80" y="170" width="180" height="100" rx="10" fill="#0066ff" fill-opacity="0.2" stroke="#0066ff" stroke-width="1" />
  <text x="100" y="195" font-family="Arial, sans-serif" font-size="12" fill="#ffffff">Total Value Locked</text>
  <text x="100" y="230" font-family="Arial, sans-serif" font-size="24" font-weight="bold" fill="#00ff7f">$125M+</text>
  
  <rect x="290" y="170" width="180" height="100" rx="10" fill="#00ff7f" fill-opacity="0.2" stroke="#00ff7f" stroke-width="1" />
  <text x="310" y="195" font-family="Arial, sans-serif" font-size="12" fill="#ffffff">Active Users</text>
  <text x="310" y="230" font-family="Arial, sans-serif" font-size="24" font-weight="bold" fill="#0066ff">50K+</text>
  
  <rect x="500" y="170" width="180" height="100" rx="10" fill="#ff6b35" fill-opacity="0.2" stroke="#ff6b35" stroke-width="1" />
  <text x="520" y="195" font-family="Arial, sans-serif" font-size="12" fill="#ffffff">APY Rate</text>
  <text x="520" y="230" font-family="Arial, sans-serif" font-size="24" font-weight="bold" fill="#ff6b35">15.2%</text>
  
  <!-- Chart Area -->
  <rect x="80" y="300" width="640" height="200" rx="10" fill="#1a1a1a" stroke="#00ff7f" stroke-width="1" />
  
  <!-- Chart Line -->
  <polyline points="100,450 150,420 200,400 250,380 300,360 350,340 400,320 450,300 500,280 550,260 600,240 650,220 700,200" 
            stroke="#00ff7f" stroke-width="3" fill="none" />
  
  <!-- Chart Points -->
  <circle cx="100" cy="450" r="4" fill="#00ff7f" />
  <circle cx="200" cy="400" r="4" fill="#00ff7f" />
  <circle cx="300" cy="360" r="4" fill="#00ff7f" />
  <circle cx="400" cy="320" r="4" fill="#00ff7f" />
  <circle cx="500" cy="280" r="4" fill="#00ff7f" />
  <circle cx="600" cy="240" r="4" fill="#00ff7f" />
  <circle cx="700" cy="200" r="4" fill="#00ff7f" />
  
  <!-- Floating Elements -->
  <circle cx="650" cy="120" r="20" fill="#00ff7f" opacity="0.8" />
  <text x="645" y="125" font-family="Arial, sans-serif" font-size="16" fill="#000000">$</text>
  
  <circle cx="150" cy="520" r="15" fill="#0066ff" opacity="0.8" />
  <text x="146" y="524" font-family="Arial, sans-serif" font-size="12" fill="#ffffff">+</text>
</svg>
